<?xml version="1.0" encoding="UTF-8" standalone="yes"?>
<svg version="1.1" xmlns="http://www.w3.org/2000/svg" xmlns:xlink="http://www.w3.org/1999/xlink" x="0px" y="0px" viewBox="0 0 314.9 315" style="enable-background:new 0 0 314.9 315;" xml:space="preserve">
      <style type="text/css">.xxxxxx{fill:#8C8C8C;}</style>
    <title>karate</title>
    <g id="color_index_2" fill="#ffb0b0">
              <path d="M313.2,99.2l-42-63c-0.9-1.3-2-2.4-3.4-3.3L215.3,1.5c-1.6-1-3.5-1.5-5.4-1.5H105c-1.9,0-3.7,0.5-5.4,1.5L47.1,33c-1.4,0.8-2.5,1.9-3.4,3.3l-42,63c-3.1,4.6-2,10.8,2.4,14.2l42,31.5c4.6,3.5,11.2,2.5,14.7-2.1l0,0L73.5,126v178.5c0,5.8,4.7,10.5,10.5,10.5h147c5.8,0,10.5-4.7,10.5-10.5V126l12.6,16.8c3.5,4.6,10.1,5.6,14.7,2.1l42-31.5C315.2,110.1,316.2,103.8,313.2,99.2z"/>
          </g>
    <g id="color_index_1" fill="#1f36e6">
              <path d="M217.8,3l-2.5-1.6c-1.6-1-3.5-1.5-5.4-1.5H105c-1.9,0-3.7,0.5-5.4,1.5l-3.4,2l61.2,70L217.8,3z"/>
          </g>
    <g id="color_index_0" fill="#111aa7">
              <path d="M136.5,115.5L225.9,7.8l-10.5-6.3c-1.7-1-3.5-1.5-5.5-1.5H205l-47.6,57.1L109.9,0H105c-1.9,0-3.7,0.5-5.4,1.5L89.1,7.8l54.7,65.7L117.9,105c-1.6,1.9-2.4,4.3-2.4,6.7v87.8h-42v21h64.4l-10.5,15.2c-3.6,4.5-2.9,11.1,1.6,14.8c4.5,3.6,11.1,2.9,14.8-1.6c0.4-0.5,0.8-1.1,1.1-1.6l12.7-18.4l12.3,18.4c3.6,4.5,10.2,5.2,14.8,1.6c3.9-3.2,5.1-8.7,2.7-13.1l-10.5-15.2h64.8v-21h-105v-84.1H136.5z"/>
          </g>
  </svg>